<svg width="215" height="81" viewBox="0 0 215 81" fill="none" xmlns="http://www.w3.org/2000/svg">
<path d="M44.2353 30.764C42.0302 35.5954 40.2129 40.5903 38.4032 45.58L38.2338 46.0482L38.191 46.1655L38.1533 46.2845L38.0788 46.5216L37.7826 47.4718C37.5883 48.1061 37.4017 48.743 37.2348 49.3858C37.067 50.0279 36.9181 50.675 36.7982 51.3282C36.6775 51.9804 36.5911 52.6396 36.55 53.3021C36.5311 53.6334 36.5217 53.9655 36.5328 54.2968C36.5397 54.629 36.5688 54.9594 36.615 55.2881C36.6595 55.6168 36.7349 55.9412 36.8265 56.2597C36.9223 56.5773 37.049 56.8854 37.1997 57.1807C37.281 57.3254 37.3606 57.4709 37.4505 57.6105C37.5447 57.7474 37.6405 57.8827 37.7527 58.0051C37.9701 58.2559 38.2312 58.4673 38.5128 58.6411C38.7987 58.8097 39.1069 58.9416 39.4296 59.0203C39.5101 59.0409 39.5905 59.0597 39.6727 59.0725C39.754 59.0905 39.8371 59.0965 39.9193 59.1059L40.1666 59.1333C40.2488 59.1427 40.3319 59.153 40.4149 59.153" stroke="#AEA13A" stroke-width="2" stroke-linecap="round" stroke-linejoin="round"/>
<path d="M55.0469 45.7195C54.5932 48.333 54.3526 50.9935 54.4853 53.6463C54.5033 53.9776 54.5384 54.308 54.5897 54.6358C54.6437 54.9628 54.7139 55.2881 54.7995 55.6083C54.8876 55.9284 54.9946 56.2426 55.1179 56.5507C55.2429 56.8581 55.3901 57.1559 55.557 57.4427C55.8909 58.0145 56.3292 58.5341 56.8753 58.9125C57.1484 59.1008 57.4531 59.2438 57.7716 59.3354C58.09 59.427 58.4238 59.4646 58.7551 59.4544C59.0873 59.4398 59.4143 59.3739 59.7327 59.2814C59.8893 59.2258 60.0486 59.1796 60.1992 59.1094C60.2754 59.076 60.3525 59.046 60.4278 59.0101L60.6495 58.8971C61.241 58.5941 61.776 58.1926 62.2725 57.7534C62.7698 57.3135 63.2253 56.8289 63.6575 56.3256C64.0907 55.8223 64.5016 55.3018 64.909 54.7779C65.3165 54.254 65.7265 53.7327 66.128 53.2037L67.3264 51.6141C68.1242 50.5535 68.928 49.4972 69.7798 48.4793" stroke="#F2672E" stroke-width="2" stroke-linecap="round" stroke-linejoin="round"/>
<path d="M40.5483 59.1573C41.2109 59.1847 41.8777 59.1179 42.5206 58.9536C43.1643 58.7901 43.7815 58.5316 44.3576 58.2037C45.5132 57.5446 46.5028 56.6304 47.3708 55.6297C48.2405 54.6256 49.0007 53.5333 49.7154 52.4162C50.4311 51.2982 51.0962 50.1494 51.7921 49.0186C54.5768 44.4989 57.1251 39.8327 59.4244 35.0484" stroke="#F9BF42" stroke-width="2" stroke-linejoin="round"/>
<path d="M59.4253 35.0484C61.7254 30.2641 63.7764 25.3592 65.5689 20.3626C66.0166 19.1128 66.4472 17.8579 66.8624 16.597C66.9668 16.2819 67.0695 15.9661 67.1705 15.6502C67.2724 15.3343 67.3743 15.0185 67.4727 14.7017C67.5712 14.385 67.6739 14.0691 67.768 13.7507C67.8613 13.4331 67.9418 13.1087 67.9701 12.7774C68 12.4478 67.9684 12.108 67.8425 11.7998C67.721 11.4925 67.5104 11.2126 67.2202 11.0483C67.1483 11.0063 67.0712 10.9763 66.9925 10.9498L66.8709 10.9233L66.8102 10.9104L66.7477 10.907C66.5825 10.8865 66.4155 10.9207 66.258 10.9704L66.1416 11.0149C66.1039 11.0311 66.068 11.0525 66.0312 11.0714C65.9559 11.1065 65.8908 11.1595 65.8206 11.2032C65.6896 11.3051 65.5629 11.4129 65.4525 11.537C65.2257 11.7801 65.0382 12.0558 64.8756 12.3451C64.7925 12.4889 64.7206 12.6387 64.6496 12.7885C64.5785 12.9383 64.504 13.0864 64.4356 13.2379C64.1548 13.8389 63.8997 14.4526 63.6566 15.0698" stroke="#1C8CBB" stroke-width="2" stroke-linejoin="round"/>
<path d="M63.6566 15.0698C62.6884 17.5437 61.9882 20.1092 61.2555 22.6593L59.0658 30.3155C58.3381 32.8681 57.6003 35.4182 56.8812 37.9734C56.1673 40.5295 55.5081 43.1044 55.0459 45.7187" stroke="#FF7BA2" stroke-width="2" stroke-linejoin="round"/>
<path d="M8.14301 5.39511C8.62238 6.85633 8.94253 8.36977 9.09832 9.90033C9.25069 11.4309 9.24385 12.9769 9.0812 14.5066C8.75677 17.5643 7.81002 20.5586 6.28887 23.232L5.99783 23.7302L5.8523 23.9793L5.69736 24.2224C5.48764 24.5442 5.25823 24.8558 4.98516 25.1272C4.7138 25.3985 4.39194 25.6254 4.02984 25.7572C3.67031 25.8873 3.26884 25.9335 2.89733 25.8274C2.85025 25.8154 2.80488 25.8 2.76037 25.782C2.71414 25.7675 2.67305 25.7427 2.6294 25.7221C2.58745 25.699 2.54123 25.6827 2.50271 25.6536L2.38372 25.5723C2.23477 25.4516 2.09867 25.3129 1.9968 25.1486C1.89493 24.9859 1.80848 24.8122 1.75027 24.629C1.71603 24.5391 1.69634 24.4449 1.6698 24.3525C1.65097 24.2583 1.62786 24.165 1.61587 24.0691C1.55766 23.6891 1.54996 23.3021 1.58078 22.9187C1.62015 22.536 1.6621 22.1534 1.73486 21.7759C1.87011 21.0191 2.07127 20.2744 2.33065 19.5502C2.59088 18.826 2.91702 18.1275 3.2911 17.4555C3.66603 16.7844 4.09148 16.1416 4.564 15.5338C5.03737 14.9277 5.5604 14.3602 6.12024 13.8346" stroke="#AEA13A" stroke-width="2" stroke-linecap="round" stroke-linejoin="round"/>
<path d="M36.5398 30.1161C38.3032 27.5951 40.1145 25.1083 41.9721 22.6567L42.6715 21.7391L43.3819 20.83L44.8029 19.0126C45.2772 18.4074 45.748 17.7988 46.2256 17.1962C46.7041 16.5944 47.1895 15.9978 47.6809 15.4054C49.6463 13.0385 51.7101 10.7546 53.851 8.54611C54.9219 7.44185 56.0116 6.35642 57.1185 5.28811L57.9514 4.4903C58.2304 4.22579 58.5121 3.96385 58.7877 3.69592C59.351 3.16947 60.0101 2.76286 60.6547 2.34598" stroke="#F2672E" stroke-width="2" stroke-linecap="round" stroke-linejoin="round"/>
<path d="M6.23242 13.7267C6.79568 13.2029 7.40773 12.7321 8.0566 12.3195C8.21667 12.2124 8.38531 12.12 8.55052 12.0224C8.71744 11.9274 8.8895 11.8401 9.05985 11.7511L9.32093 11.6278L9.45105 11.5662L9.58459 11.5105L9.85081 11.4001C9.93983 11.365 10.0314 11.3342 10.1222 11.3016C10.4834 11.169 10.8558 11.0714 11.2316 10.9883L11.5158 10.9378L11.6579 10.9122L11.8008 10.8959L12.0876 10.8625C12.1835 10.8539 12.2793 10.8514 12.3752 10.8462C13.1439 10.8043 13.916 10.907 14.6556 11.1167C15.0246 11.2246 15.385 11.3607 15.7368 11.5165C16.0852 11.68 16.4267 11.8572 16.752 12.0618C17.0765 12.2672 17.3949 12.4855 17.6919 12.7286L17.8049 12.8185L17.9145 12.9127L18.1328 13.1019C18.2732 13.2337 18.4161 13.3621 18.5497 13.5008C19.6342 14.5947 20.4791 15.9053 21.1571 17.2835C21.4961 17.9743 21.8 18.6814 22.073 19.3996C22.3521 20.1161 22.6012 20.8445 22.834 21.5773C23.0677 22.31 23.274 23.0513 23.4623 23.7969C23.6524 24.5417 23.8185 25.2933 23.9665 26.0483C24.0427 26.4249 24.1078 26.8041 24.1754 27.1825C24.2362 27.5626 24.3004 27.9409 24.3526 28.3227C24.463 29.0837 24.5546 29.8473 24.6257 30.6134L25.0554 35.2077" stroke="#F9BF42" stroke-width="2" stroke-linejoin="round"/>
<path d="M25.051 35.2068C25.1923 36.7382 25.3224 38.2713 25.4071 39.807C25.4953 41.3427 25.5287 42.881 25.5039 44.4192C25.4645 47.4949 25.2728 50.5697 24.897 53.6232C24.7086 55.1494 24.4749 56.6706 24.1993 58.184C24.0606 58.9407 23.892 59.6906 23.7499 60.4465C23.6001 61.2006 23.4315 61.9522 23.202 62.6867C23.0873 63.0539 22.9572 63.416 22.8031 63.7678C22.6482 64.1196 22.4684 64.4612 22.2442 64.7736C22.2159 64.8122 22.1894 64.8524 22.1594 64.8901L22.067 65.0005C22.0079 65.0767 21.9369 65.1417 21.8701 65.2111C21.8376 65.247 21.7999 65.2761 21.7631 65.3069L21.6518 65.3985C21.6124 65.4259 21.5713 65.4516 21.532 65.4781C21.4917 65.5038 21.4532 65.5338 21.4087 65.5518C21.0697 65.7341 20.6699 65.7957 20.2907 65.7264C20.1974 65.7033 20.1033 65.6836 20.0108 65.6571C19.9209 65.6237 19.8302 65.592 19.7403 65.5569C19.5657 65.4756 19.4005 65.3754 19.2558 65.2479C18.9682 64.9919 18.755 64.6589 18.6146 64.302C18.47 63.945 18.3887 63.5658 18.3501 63.1832C18.3048 62.8005 18.3373 62.4145 18.3519 62.031" stroke="#1C8CBB" stroke-width="2" stroke-linejoin="round"/>
<path d="M18.3494 62.0318C18.4101 61.2648 18.5771 60.509 18.8099 59.7762C19.0427 59.0435 19.3423 58.333 19.677 57.6405C20.3482 56.2554 21.1597 54.9457 21.9138 53.606C23.3999 50.913 24.8842 48.2174 26.4969 45.5971C26.8993 44.9423 27.3119 44.2926 27.7288 43.6463C28.1465 43 28.5565 42.3503 28.964 41.698C29.7789 40.3934 30.5827 39.082 31.4045 37.7826C31.8154 37.1328 32.2323 36.4865 32.656 35.8445C33.0772 35.2017 33.5026 34.5605 33.9315 33.9219C34.7883 32.6447 35.6572 31.3753 36.5389 30.1152" stroke="#FF7BA2" stroke-width="2" stroke-linejoin="round"/>
<path d="M172.884 37.2347C172.997 36.6629 173.137 36.097 173.241 35.5235C173.345 34.9508 173.42 34.3687 173.388 33.7858C173.373 33.4948 173.324 33.2054 173.239 32.9272C173.154 32.6482 173.021 32.3845 172.853 32.1474C172.498 31.6834 172.012 31.3273 171.472 31.1107C170.931 30.8907 170.343 30.8077 169.762 30.806C169.179 30.806 168.597 30.8839 168.03 31.0132C167.746 31.0774 167.465 31.1544 167.187 31.2417C166.908 31.3256 166.639 31.4386 166.365 31.5388C166.297 31.5653 166.228 31.5893 166.161 31.6166L165.963 31.7074L165.565 31.888C165.43 31.9445 165.304 32.0181 165.175 32.0849L164.789 32.2895C163.77 32.8562 162.831 33.5581 161.959 34.3302C161.088 35.1041 160.286 35.9549 159.543 36.8521C158.799 37.7492 158.112 38.6933 157.471 39.6658C156.83 40.6391 156.224 41.6355 155.66 42.6559C154.533 44.6949 153.588 46.8401 152.933 49.0786C152.768 49.6367 152.614 50.1999 152.489 50.7683C152.42 51.0517 152.37 51.3384 152.313 51.6244L152.242 52.0558C152.217 52.1996 152.199 52.3434 152.182 52.4881C152.03 53.642 152.01 54.8199 152.199 55.9712L152.279 56.4009C152.309 56.543 152.35 56.6834 152.386 56.8247L152.442 57.0361L152.512 57.2433L152.582 57.4504C152.607 57.5189 152.626 57.5899 152.658 57.655C152.717 57.7885 152.771 57.9229 152.842 58.0513C152.905 58.1832 152.982 58.3064 153.057 58.4314C153.217 58.6745 153.397 58.9056 153.608 59.1077C153.821 59.3063 154.061 59.4757 154.323 59.6033C154.585 59.7308 154.867 59.8156 155.155 59.8592C155.733 59.9491 156.324 59.8712 156.885 59.7249C157.168 59.6512 157.443 59.5536 157.713 59.4449C157.984 59.3362 158.248 59.2129 158.506 59.0786C159.024 58.8106 159.519 58.4999 159.995 58.1643C160.953 57.5009 161.829 56.7254 162.66 55.9096" stroke="#AEA13A" stroke-width="2" stroke-linecap="round" stroke-linejoin="round"/>
<path d="M175.201 68.1686C173.547 69.8105 171.754 71.3102 169.846 72.6499L169.126 73.1438L168.765 73.3912C168.646 73.4751 168.519 73.5461 168.396 73.624L167.652 74.0828L167.279 74.3123C167.154 74.3867 167.034 74.4698 166.904 74.5365L165.374 75.3806C165.248 75.4542 165.114 75.5115 164.984 75.5774L164.591 75.7692L163.806 76.1535C161.695 77.1405 159.502 77.9495 157.254 78.5675L156.41 78.7918L155.987 78.9031L155.56 78.9947L154.705 79.177L154.278 79.2686L154.064 79.314L153.848 79.3499L152.123 79.6298L150.386 79.825C150.096 79.8601 149.806 79.8824 149.515 79.9029C149.225 79.9234 148.934 79.9414 148.643 79.9551C148.061 79.9825 147.479 80.0031 146.896 79.9996C145.731 79.9971 144.565 79.962 143.404 79.8584C141.082 79.6632 138.776 79.2677 136.521 78.6822C134.264 78.1001 132.06 77.3135 129.94 76.3479C127.819 75.3831 125.78 74.2378 123.855 72.9229" stroke="#F2672E" stroke-width="2" stroke-linecap="round" stroke-linejoin="round"/>
<path d="M162.827 55.7418C163.932 54.6324 164.952 53.4434 165.958 52.245C166.964 51.0474 167.953 49.8319 168.869 48.5624C169.786 47.2946 170.626 45.9678 171.319 44.5631C171.659 43.8594 171.998 43.1489 172.201 42.3914C172.303 42.0139 172.366 41.6244 172.369 41.2332L172.367 41.0868L172.358 40.9404C172.352 40.8428 172.339 40.7452 172.32 40.6494C172.28 40.4593 172.207 40.2693 172.073 40.1246C171.94 39.9817 171.756 39.8961 171.566 39.8618C171.375 39.8259 171.178 39.8379 170.989 39.8747C170.612 39.9611 170.255 40.128 169.944 40.36C169.632 40.5903 169.369 40.8796 169.139 41.1912C168.911 41.5037 168.717 41.8401 168.544 42.1859C168.371 42.5326 168.22 42.8887 168.079 43.2491C167.936 43.6086 167.8 43.9707 167.665 44.3345C167.399 45.0613 167.153 45.7957 166.932 46.5379C166.488 48.0205 166.137 49.5331 165.917 51.0654C165.696 52.5968 165.613 54.1513 165.71 55.6964C165.808 57.2407 166.093 58.7764 166.595 60.241C167.093 61.7083 167.824 63.0907 168.72 64.3525C168.937 64.6735 169.184 64.9723 169.421 65.2779C169.543 65.4285 169.674 65.5715 169.799 65.7187L169.989 65.9378C170.053 66.0106 170.121 66.0782 170.188 66.1484L170.59 66.5679L171.011 66.9676C171.082 67.0335 171.15 67.102 171.222 67.1662L171.442 67.3554C171.589 67.4804 171.733 67.6105 171.885 67.7312C172.19 67.9683 172.49 68.214 172.81 68.4314L173.046 68.5992L173.164 68.6831L173.286 68.7618L173.774 69.0769C173.937 69.1813 174.107 69.2737 174.273 69.373L174.524 69.5194C174.607 69.5682 174.694 69.611 174.78 69.6572L175.293 69.9286L175.817 70.1786" stroke="#F9BF42" stroke-width="2" stroke-linejoin="round"/>
<path d="M175.819 70.1777C177.932 71.1621 180.212 71.7776 182.527 72.0344C184.844 72.2895 187.2 72.191 189.485 71.7365C190.628 71.5096 191.752 71.1886 192.85 70.8009C193.948 70.4122 195.022 69.9525 196.063 69.4278C198.145 68.38 200.092 67.0678 201.863 65.5543C203.636 64.0409 205.226 62.3186 206.636 60.4644C207.337 59.5331 207.995 58.5701 208.609 57.5797C209.218 56.5858 209.781 55.5646 210.304 54.5228L210.686 53.737L211.048 52.9418C211.172 52.6781 211.279 52.4067 211.395 52.1397L211.565 51.7373C211.621 51.6029 211.672 51.466 211.726 51.3307C212.16 50.2496 212.542 49.1462 212.846 48.0214C213.148 46.8966 213.353 45.7426 213.417 44.5793C213.487 43.4168 213.374 42.2407 213.066 41.1176" stroke="#1C8CBB" stroke-width="2" stroke-linejoin="round"/>
<path d="M213.066 41.1167C212.758 39.9945 212.241 38.921 211.498 38.0214C210.76 37.1217 209.8 36.3924 208.703 35.99C207.605 35.5851 206.411 35.5081 205.256 35.6348C204.097 35.7623 202.965 36.0833 201.885 36.519C200.799 36.9445 199.76 37.4829 198.773 38.1018C198.277 38.4074 197.802 38.7447 197.331 39.0888C196.868 39.4424 196.41 39.8044 195.973 40.1897C194.212 41.7194 192.677 43.4913 191.275 45.3506C189.876 47.215 188.61 49.1753 187.38 51.1544C186.153 53.1352 184.944 55.1289 183.688 57.0917C182.434 59.0563 181.136 60.9935 179.74 62.8596C179.042 63.7926 178.322 64.7094 177.57 65.6005L176.413 66.9102C176.364 66.9642 176.317 67.0207 176.268 67.0729L176.115 67.2295L175.81 67.542L175.199 68.1677" stroke="#FF7BA2" stroke-width="2" stroke-linejoin="round"/>
<path d="M90.0546 36.8701C90.3045 36.0226 90.5185 35.1503 90.5014 34.2609C90.4894 33.8183 90.4192 33.3758 90.2711 32.9572C90.1273 32.5386 89.9048 32.1448 89.6043 31.8187C89.3047 31.4917 88.9169 31.2503 88.4992 31.1048C88.0806 30.9567 87.6363 30.895 87.1946 30.8771C86.9729 30.8685 86.7512 30.8694 86.5303 30.8831C86.3086 30.8891 86.0886 30.9139 85.8678 30.9344C85.4278 30.9901 84.9921 31.074 84.5641 31.1869C83.7089 31.4189 82.8854 31.7639 82.1116 32.1953C81.7229 32.4085 81.3471 32.6439 80.9808 32.893C80.7959 33.0154 80.6178 33.1472 80.4381 33.2773L79.9125 33.684C79.826 33.7524 79.7353 33.8175 79.6514 33.8894L79.398 34.1051C79.2311 34.2506 79.0573 34.3885 78.8955 34.5391L78.4093 34.9928L78.2877 35.1058L78.1713 35.2239L77.9385 35.461C77.6218 35.7718 77.3307 36.1056 77.0328 36.4335C76.8864 36.5995 76.7469 36.7716 76.604 36.9411L76.3908 37.1953L76.1862 37.4573L75.7787 37.982L75.3875 38.5196C75.2549 38.6968 75.1316 38.8808 75.0066 39.064C74.8834 39.2481 74.7541 39.4278 74.6351 39.6153C74.1497 40.3566 73.6943 41.1168 73.2569 41.888C72.8263 42.6627 72.4078 43.4434 72.0148 44.2378C71.9138 44.4347 71.818 44.635 71.7212 44.8336C71.6254 45.033 71.5261 45.2316 71.4319 45.4319C71.2427 45.8326 71.0647 46.2383 70.8977 46.6492C70.5656 47.471 70.278 48.3107 70.0409 49.1642C69.7995 50.0176 69.6266 50.8873 69.4793 51.7613C69.3321 52.6345 69.2208 53.5162 69.2037 54.403C69.1874 55.2873 69.267 56.1818 69.5332 57.0293C69.802 57.8699 70.272 58.6643 70.9594 59.2301C71.3035 59.5083 71.7007 59.7249 72.1278 59.8447C72.5558 59.9637 73.007 59.9757 73.4461 59.9235C73.6661 59.8978 73.8835 59.8533 74.0975 59.7942C74.3107 59.7351 74.5221 59.6658 74.7267 59.5819C75.1376 59.4167 75.5314 59.2096 75.9106 58.981C76.669 58.5213 77.3692 57.9743 78.0583 57.4188C78.4024 57.1397 78.7491 56.8641 79.0855 56.5747C79.4228 56.2871 79.7532 55.9918 80.0768 55.6896C80.724 55.0835 81.3437 54.4492 81.9327 53.7875C82.0799 53.6223 82.2254 53.4545 82.3692 53.2859C82.5113 53.1156 82.6603 52.9512 82.7827 52.7663C83.0292 52.3982 83.2098 51.9882 83.4855 51.6389C83.7577 51.2888 84.0693 50.9721 84.3578 50.6365C84.6428 50.2975 84.9159 49.9483 85.1838 49.5956C86.2513 48.1815 87.1937 46.6715 87.9941 45.0904C88.3819 44.2934 88.8065 43.5145 89.1386 42.6918C89.3021 42.2809 89.4434 41.8581 89.5187 41.4206C89.5521 41.2015 89.5555 40.9781 89.5238 40.7589C89.487 40.5424 89.416 40.3232 89.273 40.152C89.1361 39.9757 88.9255 39.8687 88.7089 39.831C88.4906 39.7891 88.2638 39.8182 88.054 39.8875C87.632 40.0279 87.2691 40.3044 86.9583 40.6177C86.657 40.9421 86.4105 41.3145 86.1691 41.6843C85.9268 42.055 85.7128 42.4444 85.5117 42.8382C84.7104 44.4227 84.2182 46.1416 83.8424 47.8707" stroke="#AEA13A" stroke-width="2" stroke-linecap="round" stroke-linejoin="round"/>
<path d="M146.128 26.2597C146.819 24.6273 147.476 22.982 148.152 21.3427C148.822 19.7026 149.481 18.0556 150.028 16.3693C150.301 15.5261 150.546 14.6743 150.748 13.8115C150.798 13.5958 150.853 13.3809 150.886 13.1618C150.919 12.9435 150.931 12.7192 150.892 12.5001C150.817 12.0592 150.482 11.6868 150.068 11.531C149.861 11.4514 149.633 11.4335 149.414 11.472C149.196 11.5131 148.991 11.6098 148.812 11.7391C148.453 12.0019 148.182 12.364 147.949 12.7389C147.483 13.4956 147.18 14.3345 146.83 15.1469C144.038 21.662 141.818 28.4246 140.219 35.3309C139.416 38.7832 138.768 42.2715 138.257 45.7786C138.003 47.5326 137.787 49.2917 137.611 51.0551C137.569 51.496 137.525 51.9368 137.488 52.3785C137.448 52.8194 137.412 53.2619 137.404 53.7045C137.386 54.5896 137.456 55.4824 137.689 56.3376C137.807 56.7647 137.965 57.1816 138.171 57.5737C138.378 57.9657 138.63 58.3347 138.938 58.654C139.247 58.9716 139.61 59.2412 140.021 59.4081C140.431 59.5768 140.879 59.6461 141.322 59.635C141.765 59.623 142.204 59.5322 142.621 59.3824C143.039 59.2344 143.435 59.0298 143.811 58.7961C144.188 58.5632 144.544 58.2987 144.889 58.0197L145.15 57.8134C145.235 57.7432 145.317 57.6678 145.4 57.5959L145.65 57.3768L145.775 57.2672C145.816 57.2304 145.855 57.191 145.895 57.1525L146.374 56.6911L146.833 56.21C146.91 56.1313 146.984 56.0483 147.057 55.9652L147.277 55.7161C147.35 55.6331 147.425 55.5509 147.496 55.4662L147.708 55.2102C148.276 54.5297 148.813 53.8243 149.332 53.1061C150.375 51.6732 151.364 50.2017 152.46 48.8072" stroke="#F2672E" stroke-width="2" stroke-linecap="round" stroke-linejoin="round"/>
<path d="M83.7619 48.2174C83.4024 49.9508 83.1593 51.7177 83.185 53.4922C83.1918 54.3782 83.2723 55.2633 83.411 56.1381C83.4846 56.5747 83.5856 57.0087 83.7508 57.4205C83.9169 57.8296 84.1454 58.2217 84.4724 58.5239C84.796 58.8277 85.2103 59.0272 85.6443 59.1154C86.0792 59.2053 86.5294 59.1958 86.9668 59.1316C87.8451 58.9981 88.6789 58.654 89.4442 58.2106C90.2146 57.7723 90.9285 57.2381 91.5859 56.6449C92.2399 56.0465 92.8451 55.396 93.4015 54.7069C93.9622 54.0204 94.4801 53.3004 94.9852 52.5728L95.747 51.484L95.9371 51.2118L96.122 50.9361L96.4926 50.3848C96.9925 49.6529 97.4668 48.9039 97.9487 48.1609C98.1875 47.7877 98.4178 47.4093 98.6523 47.0335L99.0033 46.4694C99.1197 46.2811 99.2319 46.0893 99.3457 45.9002L100.028 44.76L100.692 43.6086L101.024 43.0325L101.348 42.4521L101.993 41.2905C102.411 40.509 102.838 39.7326 103.242 38.9442C103.445 38.5504 103.653 38.1592 103.853 37.7637L104.45 36.5764C105.238 34.9894 106.006 33.392 106.74 31.7784C107.113 30.9746 107.468 30.1631 107.831 29.3542L108.36 28.1352C108.537 27.7286 108.713 27.322 108.883 26.9137C110.272 23.6531 111.553 20.3455 112.718 16.9976C113.3 15.3241 113.856 13.6411 114.381 11.9479C114.642 11.1013 114.9 10.2539 115.147 9.40214C115.394 8.55211 115.652 7.70123 115.796 6.82638C115.868 6.38895 115.911 5.94639 115.901 5.50298C115.896 5.06041 115.837 4.617 115.708 4.19241C115.584 3.76697 115.387 3.36379 115.134 2.99998C114.88 2.63788 114.555 2.32201 114.177 2.09089C113.796 1.86576 113.36 1.72794 112.917 1.71595C112.696 1.70739 112.474 1.7228 112.256 1.76646C112.147 1.78272 112.04 1.81611 111.933 1.84264C111.827 1.87774 111.721 1.90856 111.619 1.95307C111.413 2.03268 111.215 2.13455 111.026 2.25011C110.835 2.3631 110.658 2.49664 110.487 2.63788C110.148 2.92379 109.857 3.26278 109.6 3.62316" stroke="#F9BF42" stroke-width="2" stroke-linejoin="round"/>
<path d="M109.602 3.62061C109.09 4.34651 108.729 5.16315 108.389 5.97979L107.897 7.21502L107.653 7.83307L107.53 8.14209L107.416 8.45454L106.96 9.70261C106.885 9.91148 106.805 10.1178 106.734 10.3275L106.523 10.9575L106.1 12.2176C105.963 12.6388 105.838 13.0642 105.707 13.4871L105.512 14.1222L105.414 14.4398C105.382 14.546 105.354 14.653 105.324 14.76L104.967 16.0406C104.908 16.2537 104.847 16.4669 104.79 16.6809L104.627 17.3254L104.302 18.6146C104.196 19.0443 104.104 19.4783 104.004 19.9098L103.857 20.5578C103.808 20.7735 103.758 20.9892 103.716 21.2075L103.452 22.5103L103.32 23.1618L103.204 23.8158C101.936 30.7898 101.375 37.8921 101.502 44.9791C101.56 46.7502 101.708 48.5204 102.008 50.2676C102.082 50.7042 102.17 51.139 102.263 51.5722L102.414 52.2193C102.468 52.4342 102.524 52.6482 102.588 52.8605C102.837 53.7105 103.159 54.5408 103.569 55.3266C103.979 56.1108 104.487 56.8512 105.13 57.4633C105.451 57.768 105.811 58.0334 106.202 58.2431C106.396 58.3501 106.601 58.4348 106.809 58.5127C106.915 58.5444 107.019 58.5821 107.127 58.6086C107.235 58.6326 107.342 58.6643 107.451 58.6788C107.887 58.7541 108.337 58.7653 108.774 58.6882C109.211 58.6112 109.634 58.4682 110.034 58.2773C110.834 57.893 111.549 57.3546 112.213 56.769C113.557 55.6117 114.721 54.2601 115.769 52.8331C116.29 52.1157 116.785 51.3804 117.259 50.6322C117.731 49.8824 118.184 49.1205 118.628 48.3544C119.513 46.8187 120.371 45.2684 121.241 43.7242L123.842 39.0871" stroke="#1C8CBB" stroke-width="2" stroke-linejoin="round"/>
<path d="M123.841 39.0837L126.442 34.4467L127.093 33.2876L127.418 32.7081C127.528 32.5155 127.626 32.316 127.695 32.1054C127.766 31.8957 127.807 31.674 127.797 31.4523C127.788 31.2315 127.725 31.0115 127.608 30.8231C127.493 30.6348 127.319 30.4782 127.107 30.4063C126.897 30.3326 126.665 30.342 126.453 30.4063C126.242 30.4705 126.044 30.5834 125.882 30.735C125.803 30.812 125.718 30.8839 125.649 30.9704L125.54 31.0962C125.505 31.139 125.474 31.1852 125.441 31.2297C125.18 31.5884 124.979 31.9873 124.809 32.3956C124.468 33.2148 124.249 34.0769 123.986 34.9217C123.432 36.6055 122.917 38.3013 122.463 40.0151C121.554 43.4391 120.866 46.9308 120.557 50.4628L120.5 51.1245C120.484 51.3453 120.472 51.567 120.457 51.7879C120.444 52.0087 120.427 52.2296 120.418 52.4513L120.394 53.1155C120.376 53.5581 120.365 54.0015 120.353 54.4441C120.342 54.8867 120.34 55.3301 120.363 55.7726C120.386 56.2152 120.436 56.6569 120.533 57.0892C120.632 57.5206 120.779 57.9443 121 58.3287C121.059 58.422 121.116 58.517 121.178 58.6095C121.243 58.6994 121.307 58.7901 121.377 58.8748C121.516 59.0469 121.666 59.2113 121.833 59.3576C122.162 59.653 122.551 59.8858 122.976 60.0133C123.401 60.1435 123.854 60.1657 124.292 60.1101C124.732 60.0544 125.16 59.9252 125.569 59.7565C126.387 59.4124 127.134 58.9193 127.829 58.3724C128.524 57.8228 129.172 57.2142 129.782 56.5721C130.086 56.2511 130.382 55.9199 130.667 55.5809C130.953 55.2428 131.221 54.8892 131.493 54.54C132.564 53.1284 133.535 51.6423 134.444 50.1212C135.351 48.5983 136.199 47.0421 137.033 45.4782C138.709 42.3546 140.285 39.1787 141.793 35.9712C143.301 32.7637 144.752 29.5288 146.126 26.2614" stroke="#FF7BA2" stroke-width="2" stroke-linejoin="round"/>
<path d="M130.023 26.2691C129.721 25.8762 129.549 25.3977 129.462 24.914C129.392 24.4261 129.309 23.9382 129.294 23.4443C129.279 22.9529 129.341 22.4487 129.553 22.001C129.665 21.781 129.787 21.5662 129.936 21.3693C130.084 21.1724 130.263 20.9935 130.483 20.8796C130.594 20.8248 130.715 20.794 130.838 20.7838L130.93 20.7872C130.946 20.7872 130.961 20.7872 130.976 20.7897L131.022 20.7983L131.113 20.8163L131.2 20.8462C131.433 20.9241 131.657 21.0483 131.814 21.24C131.966 21.436 132.033 21.6894 132.018 21.9351C132.007 22.1825 131.942 22.423 131.856 22.6542C131.767 22.8844 131.671 23.1121 131.542 23.3227C131.415 23.5341 131.262 23.7293 131.087 23.9039C130.738 24.2532 130.301 24.51 129.833 24.6666" stroke="#AEA13A" stroke-width="2" stroke-linecap="round" stroke-linejoin="round"/>
<path d="M47.5318 25.9635C47.2297 25.5946 46.9677 25.1914 46.7666 24.7591C46.5663 24.3268 46.4438 23.8569 46.4199 23.3801C46.4019 22.9033 46.4858 22.4247 46.6519 21.9779C46.7357 21.7545 46.8547 21.5439 47.0122 21.3641C47.168 21.1852 47.3683 21.038 47.5986 20.9721C47.8289 20.9104 48.0763 20.9122 48.3031 20.9849C48.5308 21.056 48.7363 21.1929 48.8921 21.3735C49.0461 21.555 49.1454 21.7836 49.172 22.0198C49.2011 22.2578 49.1463 22.4984 49.0487 22.7149C48.6686 23.5941 47.9402 24.2968 47.0867 24.7172" stroke="#1C8CBB" stroke-width="2" stroke-linecap="round" stroke-linejoin="round"/>
<path d="M52.8647 27.4975C55.1126 27.673 57.3631 27.8288 59.6179 27.9024" stroke="#AEA13A" stroke-width="2" stroke-linecap="round" stroke-linejoin="round"/>
<path d="M66.4094 27.8801C68.6625 27.7851 70.9112 27.6028 73.1548 27.3751" stroke="#1C8CBB" stroke-width="2" stroke-linecap="round" stroke-linejoin="round"/>
<path d="M59.6453 27.9033C60.7718 27.9452 61.9 27.9563 63.0274 27.9572C64.1548 27.9521 65.2821 27.9264 66.4087 27.8802" stroke="#F9BF42" stroke-width="2" stroke-linecap="square" stroke-linejoin="round"/>
<path d="M135.214 27.4975C137.462 27.673 139.712 27.8288 141.967 27.9024" stroke="#AEA13A" stroke-width="2" stroke-linecap="round" stroke-linejoin="round"/>
<path d="M148.758 27.8801C151.011 27.7851 153.26 27.6028 155.504 27.3751" stroke="#1C8CBB" stroke-width="2" stroke-linecap="round" stroke-linejoin="round"/>
<path d="M141.994 27.9033C143.121 27.9452 144.249 27.9563 145.376 27.9572C146.504 27.9521 147.631 27.9264 148.758 27.8802" stroke="#F9BF42" stroke-width="2" stroke-linecap="square" stroke-linejoin="round"/>
</svg>
